<?xml version="1.0" standalone="no"?>
<!DOCTYPE svg PUBLIC "-//W3C//DTD SVG 20010904//EN"
 "http://www.w3.org/TR/2001/REC-SVG-20010904/DTD/svg10.dtd">
<svg version="1.0" xmlns="http://www.w3.org/2000/svg"
 width="1024.000000pt" height="1024.000000pt" viewBox="0 0 1024.000000 1024.000000"
 preserveAspectRatio="xMidYMid meet">
<metadata>
Created by potrace 1.11, written by Peter Selinger 2001-2013
</metadata>
<g transform="translate(0.000000,1024.000000) scale(0.100000,-0.100000)"
fill="#000000" stroke="none">
<path d="M5417 10234 c-1 -1 -85 -4 -187 -8 -102 -3 -214 -8 -250 -10 -36 -3
-101 -7 -145 -10 -75 -5 -102 -8 -200 -21 -22 -2 -65 -7 -95 -10 -117 -12
-176 -21 -380 -55 -30 -5 -72 -11 -92 -14 -152 -22 -604 -133 -793 -194 -44
-14 -84 -27 -90 -28 -64 -15 -445 -158 -570 -214 -55 -25 -418 -205 -450 -223
-21 -12 -163 -98 -200 -120 -106 -65 -361 -242 -385 -267 -3 -3 -23 -18 -45
-35 -22 -16 -42 -32 -45 -35 -3 -3 -21 -18 -40 -34 -152 -125 -390 -361 -500
-495 -19 -24 -40 -48 -45 -54 -110 -126 -297 -405 -390 -582 -26 -50 -53 -99
-60 -110 -10 -17 -44 -90 -101 -220 -78 -178 -173 -463 -209 -630 -7 -30 -29
-131 -31 -140 -1 -5 -9 -48 -19 -94 -9 -47 -19 -105 -21 -130 -2 -24 -6 -51
-9 -60 -5 -16 -9 -49 -21 -151 -30 -276 -35 -737 -9 -1000 1 -19 6 -69 9 -110
3 -42 8 -84 10 -95 3 -18 10 -66 21 -155 7 -60 34 -227 54 -340 8 -45 61 -299
76 -360 18 -81 100 -387 125 -470 18 -58 36 -122 42 -142 10 -37 24 -50 26
-25 1 12 36 117 49 147 3 8 7 17 8 20 1 3 5 14 9 25 4 11 17 45 28 75 26 70
46 120 58 142 6 10 10 22 10 27 0 4 10 30 22 57 12 27 23 51 23 54 3 10 48
110 109 245 47 102 119 248 126 255 3 3 29 52 59 110 30 58 77 143 104 190 27
47 58 101 69 119 47 82 211 336 219 339 5 2 9 8 9 13 0 7 161 244 187 274 5 6
22 28 38 50 49 66 217 280 224 285 3 3 24 27 46 55 22 27 51 61 65 76 14 15
32 36 40 47 51 68 445 474 504 520 16 12 26 22 22 22 -4 0 14 18 40 41 26 22
52 46 59 52 6 7 33 30 59 52 26 22 64 56 85 76 21 20 63 55 95 79 31 23 56 46
56 51 0 4 8 10 18 13 9 4 33 21 53 39 20 17 47 39 60 47 12 8 31 23 41 33 10
9 20 17 23 17 3 0 13 7 22 15 10 8 45 34 78 59 33 25 65 49 70 53 6 5 37 26
70 48 33 22 62 43 63 48 2 4 8 5 13 1 5 -3 9 -1 9 4 0 8 47 42 85 62 6 3 31
20 57 38 26 17 51 32 57 32 6 0 11 4 11 9 0 5 14 14 30 21 17 7 30 17 30 22 0
5 4 7 9 3 5 -3 12 -1 15 4 3 5 32 24 64 42 31 18 75 44 97 56 22 13 48 26 58
30 9 3 17 10 17 15 0 5 5 6 10 3 6 -3 10 -2 10 3 0 4 16 14 35 22 19 8 35 18
35 22 0 5 4 7 9 4 5 -3 19 2 32 12 29 22 253 132 268 132 6 0 11 5 11 10 0 6
6 10 14 10 8 0 39 13 70 30 31 16 59 29 61 29 15 0 75 26 75 33 0 4 3 7 8 6 4
-1 18 3 32 9 22 10 90 36 275 108 100 39 471 160 517 169 7 2 33 8 58 15 25 7
52 14 60 16 8 2 44 11 80 20 36 10 75 19 87 20 11 2 30 6 42 10 11 3 31 8 43
10 38 7 122 25 133 29 6 1 30 6 55 10 25 4 54 9 65 11 11 2 45 7 75 11 59 9
69 10 73 14 2 2 28 5 122 14 33 3 71 9 85 12 14 3 43 7 65 9 22 2 72 5 110 9
173 14 247 19 345 22 58 2 112 4 120 4 8 0 26 0 39 0 21 0 23 -14 3 -16 -17
-1 -103 -28 -165 -50 -37 -13 -69 -24 -72 -24 -3 0 -6 0 -7 -1 -2 0 -10 -2
-18 -4 -8 -2 -56 -19 -107 -38 -51 -19 -95 -32 -98 -29 -3 3 -5 0 -5 -6 0 -7
-6 -12 -14 -12 -11 0 -270 -98 -341 -129 -41 -18 -92 -40 -145 -62 -30 -12
-59 -26 -65 -31 -5 -4 -17 -8 -27 -8 -10 0 -18 -4 -18 -9 0 -5 -12 -12 -27
-16 -29 -7 -75 -28 -330 -151 -84 -41 -157 -74 -162 -74 -6 0 -11 -4 -11 -8 0
-4 -26 -20 -57 -36 -32 -15 -94 -47 -138 -71 -44 -24 -101 -54 -127 -67 -27
-13 -48 -26 -48 -30 0 -5 -4 -8 -9 -8 -4 0 -46 -22 -92 -49 -46 -27 -128 -75
-182 -106 -53 -32 -100 -61 -103 -66 -3 -5 -10 -7 -15 -4 -5 4 -9 2 -9 -3 0
-4 -19 -19 -42 -32 -24 -13 -47 -28 -53 -32 -30 -25 -237 -158 -245 -158 -6 0
-10 -4 -10 -8 0 -4 -13 -16 -30 -25 -16 -10 -35 -23 -42 -30 -7 -7 -42 -32
-78 -56 -36 -25 -78 -55 -95 -68 -16 -13 -34 -27 -40 -31 -5 -4 -37 -28 -70
-52 -33 -24 -62 -46 -65 -49 -11 -13 -99 -81 -104 -81 -3 0 -14 -8 -24 -17
-10 -10 -40 -36 -67 -58 -117 -97 -182 -152 -206 -175 -15 -14 -50 -45 -80
-70 -121 -102 -629 -610 -611 -610 3 0 -6 -10 -19 -23 -21 -20 -116 -128 -144
-165 -5 -7 -17 -21 -26 -30 -8 -9 -42 -51 -74 -92 -33 -41 -62 -77 -65 -80 -3
-3 -19 -23 -35 -45 -17 -22 -32 -42 -35 -45 -3 -3 -21 -27 -39 -55 -19 -27
-37 -52 -41 -55 -3 -3 -18 -24 -34 -47 -16 -24 -33 -43 -38 -43 -5 0 -7 -4 -4
-8 3 -5 -2 -18 -12 -28 -9 -10 -37 -50 -62 -89 -24 -38 -47 -72 -51 -75 -3 -3
-26 -38 -50 -78 -24 -40 -52 -85 -61 -100 -9 -15 -26 -45 -38 -67 -12 -22 -25
-42 -29 -45 -3 -3 -14 -21 -24 -40 -9 -19 -29 -55 -43 -80 -109 -190 -278
-549 -371 -785 -19 -49 -41 -103 -48 -120 -13 -30 -63 -157 -109 -275 -23 -60
-164 -452 -170 -475 -1 -5 -9 -30 -16 -55 -7 -25 -14 -49 -16 -55 -1 -5 -11
-39 -22 -75 -24 -73 -61 -201 -62 -212 -1 -4 -6 -22 -11 -40 -12 -39 -67 -252
-75 -288 -2 -14 -7 -33 -10 -42 -3 -10 -7 -30 -10 -45 -3 -16 -7 -36 -10 -45
-3 -9 -7 -25 -9 -35 -2 -10 -11 -51 -19 -90 -9 -40 -18 -85 -21 -100 -3 -16
-7 -39 -10 -53 -8 -38 -56 -308 -60 -338 -1 -15 -6 -43 -9 -62 -12 -70 -16
-96 -22 -140 -3 -25 -7 -56 -10 -70 -2 -14 -6 -50 -9 -80 -3 -30 -7 -64 -9
-75 -7 -34 -31 -298 -41 -445 -10 -155 -16 -283 -20 -434 -2 -94 -4 -175 -5
-181 -1 -5 -2 -25 -1 -42 l1 -33 640 0 639 0 -5 57 c-3 32 -7 69 -9 83 -5 25
-13 109 -21 210 -22 285 -22 845 1 1090 3 30 7 89 10 130 2 41 5 75 6 75 2 0
6 38 12 125 3 41 8 82 11 90 2 8 7 38 10 65 3 28 8 61 10 75 2 14 7 47 11 73
4 27 8 59 11 70 7 35 13 69 19 111 8 45 8 48 30 146 9 41 18 86 21 100 8 45
27 115 33 122 3 3 53 0 111 -8 58 -8 130 -17 160 -19 30 -3 66 -7 80 -10 32
-6 91 -12 425 -40 79 -6 202 -13 349 -20 54 -2 101 -6 103 -9 3 -3 14 -1 24 5
11 5 19 6 19 2 0 -14 577 -5 775 12 110 10 253 25 290 31 17 2 49 6 70 9 22 2
40 4 40 5 0 2 26 7 75 13 25 4 99 18 165 32 66 15 127 28 135 29 8 2 35 9 60
16 25 7 51 15 58 16 7 1 46 12 85 24 40 12 77 23 82 25 6 1 19 6 30 10 111 44
202 77 213 78 6 0 12 4 12 9 0 4 5 8 11 8 6 0 45 16 86 35 41 19 78 35 83 35
4 0 13 7 20 15 7 8 16 12 21 9 5 -3 9 0 9 5 0 6 4 11 9 11 20 0 322 186 341
210 3 3 21 17 40 30 19 12 40 28 45 34 6 6 30 27 55 46 48 37 183 163 234 219
17 18 50 53 73 77 23 24 39 44 36 44 -3 0 7 13 23 28 16 15 57 66 92 112 35
47 69 92 75 100 20 25 123 183 137 210 7 14 16 27 19 30 8 5 63 96 74 120 4 8
21 38 37 65 16 28 35 61 41 75 5 13 13 27 17 30 8 6 29 51 30 64 0 5 4 12 10
15 9 6 202 392 200 401 -1 3 17 39 39 80 22 41 41 80 42 85 2 6 27 61 57 124
30 62 54 117 54 122 0 5 5 9 12 9 6 0 9 3 5 6 -3 4 1 21 10 38 10 17 16 34 15
39 -1 4 3 7 8 7 6 0 10 9 10 20 0 11 5 20 10 20 6 0 10 5 10 11 0 5 10 31 21
57 29 63 220 445 252 502 13 25 44 82 68 128 24 45 47 82 51 82 4 0 8 9 8 20
0 11 4 20 8 20 5 0 17 18 27 40 10 22 22 40 27 40 4 0 8 5 8 12 0 11 121 205
183 293 15 22 51 74 79 115 29 41 57 80 62 86 6 7 20 24 31 40 62 86 143 184
265 325 30 34 75 84 100 110 25 26 66 69 91 95 71 75 207 203 279 264 36 30
67 58 70 61 3 3 34 30 70 60 36 29 67 57 68 61 2 4 8 8 14 8 5 0 15 6 22 13 7
6 25 21 40 32 16 11 33 25 40 30 31 27 134 101 246 176 69 46 127 86 130 89 6
6 195 121 259 158 54 30 63 37 108 82 119 117 117 330 -4 445 -75 72 -409 296
-586 394 -26 14 -64 36 -85 47 -111 64 -464 236 -562 274 -25 10 -94 38 -155
63 -60 24 -150 59 -200 76 -49 18 -97 35 -105 38 -8 4 -18 7 -22 8 -5 2 -10 4
-13 5 -3 1 -8 3 -12 4 -5 1 -12 4 -18 7 -5 3 -30 11 -55 18 -25 7 -54 17 -65
21 -23 10 -251 78 -280 85 -11 2 -54 14 -95 25 -41 12 -82 23 -90 25 -8 2 -15
4 -15 5 0 1 -9 3 -20 4 -11 2 -76 17 -145 34 -130 32 -370 80 -525 106 -49 9
-101 17 -115 20 -31 6 -136 20 -217 31 -24 3 -62 7 -85 10 -24 3 -59 8 -78 10
-91 12 -289 29 -455 40 -168 12 -720 26 -728 19z"/>
</g>
</svg>
