<?xml version="1.0" encoding="UTF-8"?>
<svg width="1023px" height="1024px" viewBox="0 0 1023 1024" version="1.1" xmlns="http://www.w3.org/2000/svg" xmlns:xlink="http://www.w3.org/1999/xlink">
    <!-- Generator: Sketch 41.2 (35397) - http://www.bohemiancoding.com/sketch -->
    <title>Shape</title>
    <desc>Created with Sketch.</desc>
    <defs></defs>
    <g id="Page-1" stroke="none" stroke-width="1" fill="none" fill-rule="evenodd">
        <path d="M1010.328,134.496 C899.576,50.568 729.144,0.462 554.418,0.462 C338.298,0.462 162.192,75.918 71.258,207.482 C28.55,269.272 4.928,342.44 1.05,424.956 C-2.404,498.43 9.934,579.682 37.734,667.102 C132.608,382.718 397.554,160 703,160 C703,160 417.174,235.232 237.476,468.192 C237.364,468.33 234.982,471.282 230.862,476.89 C194.782,525.168 163.324,580.052 139.784,642.218 C99.914,737.048 63,867.166 63,1024 L191,1024 C191,1024 171.57,901.778 205.36,761.21 C261.25,768.766 311.218,772.516 356.212,772.516 C473.89,772.516 557.582,747.056 619.6,692.392 C675.168,643.414 705.798,577.606 738.224,507.936 C787.748,401.528 843.878,280.926 1006.878,187.784 C1016.208,182.452 1022.24,172.792 1022.934,162.068 C1023.628,151.344 1018.894,140.988 1010.328,134.496 L1010.328,134.496 Z" id="Shape" fill="#000000"></path>
    </g>
</svg>